<svg xmlns="http://www.w3.org/2000/svg" xmlns:xlink="http://www.w3.org/1999/xlink" version="1.1" x="0px" y="0px" viewBox="0 0 129 161.25" enable-background="new 0 0 129 129" xml:space="preserve"><g><g><path d="M119.2,114.3H9.8c-2.3,0-4.1,1.9-4.1,4.1s1.9,4.1,4.1,4.1h109.5c2.3,0,4.1-1.9,4.1-4.1S121.5,114.3,119.2,114.3z"/><path d="M5.7,78L5.6,97.5c0,1.1,0.4,2.2,1.2,3c0.8,0.8,1.8,1.2,2.9,1.2c0,0,0,0,0,0l19.4-0.1c1.1,0,2.1-0.4,2.9-1.2l67-67    c1.6-1.6,1.6-4.2,0-5.9L79.8,8.1c-1.6-1.6-4.2-1.6-5.9,0L60.5,21.6c0,0,0,0,0,0L6.9,75.1C6.2,75.9,5.7,76.9,5.7,78z M76.9,16.9    l13.5,13.5L82.8,38L69.3,24.5L76.9,16.9z M14,79.8l49.4-49.4l13.5,13.5L27.5,93.2l-13.6,0.1L14,79.8z"/></g></g><text x="0" y="144" fill="#000000" font-size="5px" font-weight="bold" font-family="'Helvetica Neue', Helvetica, Arial-Unicode, Arial, Sans-serif">Created by Lucy González</text><text x="0" y="149" fill="#000000" font-size="5px" font-weight="bold" font-family="'Helvetica Neue', Helvetica, Arial-Unicode, Arial, Sans-serif">from the Noun Project</text></svg>